<svg width="12" height="15" viewBox="0 0 12 15" fill="none" xmlns="http://www.w3.org/2000/svg">
<path d="M0 7.5C0 7.69891 0.0790178 7.88968 0.21967 8.03033C0.360322 8.17098 0.551088 8.25 0.75 8.25H6.4425L4.7175 9.9675C4.6472 10.0372 4.59141 10.1202 4.55333 10.2116C4.51525 10.303 4.49565 10.401 4.49565 10.5C4.49565 10.599 4.51525 10.697 4.55333 10.7884C4.59141 10.8798 4.6472 10.9628 4.7175 11.0325C4.78722 11.1028 4.87017 11.1586 4.96157 11.1967C5.05296 11.2347 5.15099 11.2543 5.25 11.2543C5.34901 11.2543 5.44704 11.2347 5.53843 11.1967C5.62983 11.1586 5.71278 11.1028 5.7825 11.0325L8.7825 8.0325C8.85078 7.96117 8.9043 7.87706 8.94 7.785C9.01501 7.6024 9.01501 7.3976 8.94 7.215C8.9043 7.12294 8.85078 7.03883 8.7825 6.9675L5.7825 3.9675C5.71257 3.89757 5.62955 3.8421 5.53819 3.80426C5.44682 3.76641 5.34889 3.74693 5.25 3.74693C5.15111 3.74693 5.05318 3.76641 4.96181 3.80426C4.87045 3.8421 4.78743 3.89757 4.7175 3.9675C4.64757 4.03743 4.5921 4.12045 4.55426 4.21181C4.51641 4.30318 4.49693 4.40111 4.49693 4.5C4.49693 4.59889 4.51641 4.69682 4.55426 4.78819C4.5921 4.87955 4.64757 4.96257 4.7175 5.0325L6.4425 6.75H0.75C0.551088 6.75 0.360322 6.82902 0.21967 6.96967C0.0790178 7.11032 0 7.30109 0 7.5ZM9.75 0H2.25C1.65326 0 1.08097 0.237053 0.65901 0.65901C0.237053 1.08097 0 1.65326 0 2.25V4.5C0 4.69891 0.0790178 4.88968 0.21967 5.03033C0.360322 5.17098 0.551088 5.25 0.75 5.25C0.948912 5.25 1.13968 5.17098 1.28033 5.03033C1.42098 4.88968 1.5 4.69891 1.5 4.5V2.25C1.5 2.05109 1.57902 1.86032 1.71967 1.71967C1.86032 1.57902 2.05109 1.5 2.25 1.5H9.75C9.94891 1.5 10.1397 1.57902 10.2803 1.71967C10.421 1.86032 10.5 2.05109 10.5 2.25V12.75C10.5 12.9489 10.421 13.1397 10.2803 13.2803C10.1397 13.421 9.94891 13.5 9.75 13.5H2.25C2.05109 13.5 1.86032 13.421 1.71967 13.2803C1.57902 13.1397 1.5 12.9489 1.5 12.75V10.5C1.5 10.3011 1.42098 10.1103 1.28033 9.96967C1.13968 9.82902 0.948912 9.75 0.75 9.75C0.551088 9.75 0.360322 9.82902 0.21967 9.96967C0.0790178 10.1103 0 10.3011 0 10.5V12.75C0 13.3467 0.237053 13.919 0.65901 14.341C1.08097 14.7629 1.65326 15 2.25 15H9.75C10.3467 15 10.919 14.7629 11.341 14.341C11.7629 13.919 12 13.3467 12 12.75V2.25C12 1.65326 11.7629 1.08097 11.341 0.65901C10.919 0.237053 10.3467 0 9.75 0Z" fill="black"/>
</svg>
