<svg width="140" height="25" viewBox="0 0 140 25" fill="none" xmlns="http://www.w3.org/2000/svg">
<path d="M20.7408 24H14.0528L5.44475 6.72H5.31675C5.33808 7.25333 5.35942 7.79733 5.38075 8.352C5.40208 8.88533 5.42342 9.42933 5.44475 9.984C5.48742 10.5173 5.51942 11.0613 5.54075 11.616C5.56208 12.1493 5.58342 12.6933 5.60475 13.248V24H0.99675V1.152H7.65275L16.2288 18.272H16.3248C16.3248 17.7387 16.3141 17.216 16.2928 16.704C16.2714 16.1707 16.2394 15.648 16.1968 15.136C16.1754 14.6027 16.1541 14.08 16.1328 13.568C16.1114 13.0347 16.1007 12.5013 16.1007 11.968V1.152H20.7408V24ZM38.3533 24H25.8093V1.152H38.3533V5.12H30.9933V10.144H37.8413V14.112H30.9933V20H38.3533V24ZM69.9208 1.152L64.5128 24H58.4968L55.9688 12C55.9261 11.7653 55.8621 11.4133 55.7768 10.944C55.6914 10.4747 55.5954 9.96267 55.4888 9.408C55.4034 8.85333 55.3181 8.33067 55.2328 7.84C55.1688 7.328 55.1154 6.93333 55.0728 6.656C55.0514 6.93333 54.9981 7.328 54.9128 7.84C54.8274 8.33067 54.7314 8.85333 54.6248 9.408C54.5394 9.94133 54.4541 10.4533 54.3688 10.944C54.2834 11.4133 54.2088 11.776 54.1448 12.032L51.6168 24H45.6008L40.1928 1.152H45.2488L47.7768 13.632C47.8408 13.9947 47.9261 14.4427 48.0328 14.976C48.1394 15.488 48.2461 16.032 48.3528 16.608C48.4594 17.1627 48.5554 17.7067 48.6408 18.24C48.7261 18.7733 48.7901 19.232 48.8328 19.616C48.8968 19.2107 48.9714 18.752 49.0568 18.24C49.1634 17.7067 49.2594 17.1627 49.3448 16.608C49.4514 16.0533 49.5474 15.5413 49.6328 15.072C49.7394 14.5813 49.8248 14.1867 49.8888 13.888L52.6728 1.152H57.4728L60.1928 13.952C60.2568 14.2293 60.3314 14.6133 60.4168 15.104C60.5234 15.5733 60.6301 16.0853 60.7368 16.64C60.8434 17.1947 60.9394 17.7387 61.0248 18.272C61.1101 18.784 61.1848 19.232 61.2488 19.616C61.3128 19.0827 61.4088 18.4533 61.5368 17.728C61.6648 16.9813 61.8034 16.2347 61.9528 15.488C62.1021 14.7413 62.2301 14.1227 62.3368 13.632L64.8648 1.152H69.9208ZM85.9963 17.664C85.9963 19.008 85.6976 20.1813 85.1003 21.184C84.5029 22.1867 83.5963 22.9653 82.3803 23.52C81.1856 24.0533 79.6709 24.32 77.8363 24.32C76.9829 24.32 76.1936 24.2667 75.4683 24.16C74.7429 24.0533 74.0603 23.904 73.4203 23.712C72.7803 23.4987 72.1403 23.2427 71.5003 22.944V18.432C72.5883 18.9013 73.6976 19.3387 74.8283 19.744C75.9803 20.128 77.0683 20.32 78.0923 20.32C78.7536 20.32 79.2869 20.2133 79.6923 20C80.0976 19.7867 80.3963 19.4987 80.5883 19.136C80.7803 18.7733 80.8763 18.3573 80.8763 17.888C80.8763 17.312 80.7163 16.8213 80.3963 16.416C80.0976 16.0107 79.6496 15.6373 79.0523 15.296C78.4549 14.9333 77.7189 14.5707 76.8443 14.208C76.2043 13.9307 75.5749 13.6107 74.9563 13.248C74.3376 12.8853 73.7829 12.448 73.2923 11.936C72.8016 11.4027 72.4069 10.7627 72.1083 10.016C71.8309 9.26933 71.6923 8.37333 71.6923 7.328C71.6923 5.96267 72.0123 4.8 72.6523 3.84C73.2923 2.85866 74.1883 2.112 75.3403 1.6C76.4923 1.088 77.8363 0.831999 79.3723 0.831999C80.6309 0.831999 81.7936 0.970666 82.8603 1.248C83.9483 1.52533 84.9829 1.92 85.9643 2.432L84.3323 6.208C83.3936 5.78133 82.4976 5.45067 81.6443 5.216C80.8123 4.98133 80.0016 4.864 79.2123 4.864C78.6789 4.864 78.2309 4.96 77.8683 5.152C77.5056 5.344 77.2283 5.61067 77.0363 5.952C76.8656 6.29333 76.7803 6.69867 76.7803 7.168C76.7803 7.70133 76.9189 8.16 77.1963 8.544C77.4949 8.90667 77.9536 9.26933 78.5723 9.632C79.1909 9.97333 79.9803 10.3893 80.9403 10.88C82.0069 11.4133 82.9136 11.9787 83.6603 12.576C84.4283 13.152 85.0043 13.8453 85.3883 14.656C85.7936 15.4667 85.9963 16.4693 85.9963 17.664ZM102.166 24H89.6218V1.152H102.166V5.12H94.8058V10.144H101.654V14.112H94.8058V20H102.166V24ZM119.461 24L118.149 18.56H110.757L109.413 24H103.781L111.077 1.056H117.733L125.061 24H119.461ZM115.525 9.184C115.397 8.736 115.269 8.26667 115.141 7.776C115.013 7.28533 114.885 6.77333 114.757 6.24C114.651 5.70667 114.544 5.16267 114.437 4.608C114.352 5.16267 114.245 5.71733 114.117 6.272C113.989 6.80533 113.861 7.31733 113.733 7.808C113.627 8.29867 113.509 8.75733 113.381 9.184L111.909 14.496H117.029L115.525 9.184ZM134.33 24H129.146V5.184H123.61V1.152H139.866V5.184H134.33V24Z" fill="#FA9370"/>
</svg>
