<svg width="149" height="24" viewBox="0 0 149 24" fill="none" xmlns="http://www.w3.org/2000/svg">
<path d="M6.9675 12.44L4.8235 7.96H4.7275V23H0.1515V0.664H5.4635L11.5755 11.224L13.7195 15.704H13.8155V0.664H18.3915V23H13.0795L6.9675 12.44ZM23.3078 23V0.664H38.5078V4.984H28.1718V9.56H37.0358V13.848H28.1718V18.68H38.5078V23H23.3078ZM46.2653 23L41.2093 0.664H46.0093L48.1213 11.384L49.3053 17.592H49.4013L50.8093 11.384L53.2733 0.664H58.5853L61.0813 11.384L62.4573 17.592H62.5533L63.7373 11.384L65.8813 0.664H70.4893L65.3053 23H59.7693L56.9533 10.904L55.8653 6.008H55.7693L54.6493 10.904L51.8333 23H46.2653ZM81.1023 23.384C79.1396 23.384 77.4756 23.0533 76.1102 22.392C74.7449 21.7093 73.5823 20.8347 72.6223 19.768L75.8223 16.536C77.3369 18.2427 79.2036 19.096 81.4223 19.096C82.6169 19.096 83.5023 18.8507 84.0783 18.36C84.6543 17.8693 84.9423 17.2187 84.9423 16.408C84.9423 15.7893 84.7716 15.2773 84.4303 14.872C84.0889 14.4453 83.3956 14.1573 82.3503 14.008L80.1423 13.72C77.7743 13.4213 76.0356 12.7067 74.9263 11.576C73.8383 10.4453 73.2943 8.94133 73.2943 7.064C73.2943 6.06133 73.4863 5.144 73.8703 4.312C74.2543 3.48 74.7983 2.76533 75.5023 2.168C76.2276 1.57067 77.1023 1.112 78.1263 0.792C79.1716 0.450666 80.3556 0.279999 81.6783 0.279999C83.3636 0.279999 84.8463 0.546665 86.1263 1.08C87.4063 1.61333 88.5049 2.392 89.4223 3.416L86.1903 6.68C85.6569 6.06133 85.0063 5.56 84.2383 5.176C83.4916 4.77067 82.5423 4.568 81.3903 4.568C80.3023 4.568 79.4916 4.76 78.9583 5.144C78.4249 5.528 78.1583 6.06133 78.1583 6.744C78.1583 7.512 78.3609 8.06667 78.7663 8.408C79.1929 8.74933 79.8756 8.99467 80.8142 9.144L83.0223 9.496C85.3263 9.85867 87.0329 10.5733 88.1423 11.64C89.2516 12.6853 89.8063 14.1787 89.8063 16.12C89.8063 17.1867 89.6143 18.168 89.2303 19.064C88.8463 19.96 88.2809 20.728 87.5343 21.368C86.8089 22.008 85.9023 22.5093 84.8143 22.872C83.7263 23.2133 82.4889 23.384 81.1023 23.384ZM93.839 23V0.664H109.039V4.984H98.703V9.56H107.567V13.848H98.703V18.68H109.039V23H93.839ZM127.037 23L125.437 17.688H117.981L116.381 23H111.453L118.812 0.664H124.829L132.093 23H127.037ZM121.757 5.08H121.597L119.133 13.56H124.253L121.757 5.08ZM142.401 4.984V23H137.537V4.984H131.489V0.664H148.449V4.984H142.401Z" fill="#FA9370"/>
</svg>
