<svg width="215" height="100" viewBox="0 0 215 100" fill="none" xmlns="http://www.w3.org/2000/svg">
<circle cx="50" cy="50" r="49.5" fill="#FCFCFC" stroke="#A7A7A7"/>
<mask id="path-2-inside-1_12_207" fill="white">
<path d="M50 0H165V100H50V0Z"/>
</mask>
<path d="M50 0H165V100H50V0Z" fill="#FCFCFC"/>
<path d="M50 1H165V-1H50V1ZM165 99H50V101H165V99Z" fill="#A7A7A7" mask="url(#path-2-inside-1_12_207)"/>
<circle cx="165" cy="50" r="50" fill="#FA9370"/>
<path d="M192 46.35C191.974 46.1203 191.924 45.8941 191.85 45.675V45.45C191.73 45.1929 191.569 44.9567 191.375 44.75L176.375 29.75C176.168 29.5555 175.932 29.3952 175.675 29.275H175.425C175.182 29.145 174.921 29.0523 174.65 29H149.5C147.511 29 145.603 29.7902 144.197 31.1967C142.79 32.6032 142 34.5109 142 36.5V61.5C142 63.4891 142.79 65.3968 144.197 66.8033C145.603 68.2098 147.511 69 149.5 69H184.5C186.489 69 188.397 68.2098 189.803 66.8033C191.21 65.3968 192 63.4891 192 61.5V46.5C192 46.5 192 46.5 192 46.35ZM177 37.525L183.475 44H179.5C178.837 44 178.201 43.7366 177.732 43.2678C177.263 42.7989 177 42.163 177 41.5V37.525ZM187 61.5C187 62.163 186.737 62.7989 186.268 63.2678C185.799 63.7366 185.163 64 184.5 64H149.5C148.837 64 148.201 63.7366 147.732 63.2678C147.263 62.7989 147 62.163 147 61.5V36.5C147 35.837 147.263 35.2011 147.732 34.7322C148.201 34.2634 148.837 34 149.5 34H172V41.5C172 43.4891 172.79 45.3968 174.197 46.8033C175.603 48.2098 177.511 49 179.5 49H187V61.5ZM154.5 49H164.5C165.163 49 165.799 48.7366 166.268 48.2678C166.737 47.7989 167 47.163 167 46.5C167 45.837 166.737 45.2011 166.268 44.7322C165.799 44.2634 165.163 44 164.5 44H154.5C153.837 44 153.201 44.2634 152.732 44.7322C152.263 45.2011 152 45.837 152 46.5C152 47.163 152.263 47.7989 152.732 48.2678C153.201 48.7366 153.837 49 154.5 49ZM154.5 54C153.837 54 153.201 54.2634 152.732 54.7322C152.263 55.2011 152 55.837 152 56.5C152 57.163 152.263 57.7989 152.732 58.2678C153.201 58.7366 153.837 59 154.5 59H179.5C180.163 59 180.799 58.7366 181.268 58.2678C181.737 57.7989 182 57.163 182 56.5C182 55.837 181.737 55.2011 181.268 54.7322C180.799 54.2634 180.163 54 179.5 54H154.5Z" fill="#FCFCFC"/>
<path d="M30.1326 28.4H33.6846V30.512H33.8046C33.9806 29.808 34.3806 29.232 35.0046 28.784C35.6446 28.336 36.3726 28.112 37.1886 28.112C38.7886 28.112 39.9966 28.672 40.8126 29.792C41.6286 30.912 42.0366 32.544 42.0366 34.688C42.0366 36.832 41.6286 38.472 40.8126 39.608C39.9966 40.728 38.7886 41.288 37.1886 41.288C36.7726 41.288 36.3806 41.224 36.0126 41.096C35.6446 40.984 35.3086 40.824 35.0046 40.616C34.7166 40.392 34.4686 40.136 34.2606 39.848C34.0526 39.544 33.9006 39.224 33.8046 38.888H33.6846V45.8H30.1326V28.4ZM36.0126 38.408C36.6846 38.408 37.2366 38.176 37.6686 37.712C38.1166 37.232 38.3406 36.592 38.3406 35.792V33.608C38.3406 32.808 38.1166 32.176 37.6686 31.712C37.2366 31.232 36.6846 30.992 36.0126 30.992C35.3406 30.992 34.7806 31.16 34.3326 31.496C33.9006 31.816 33.6846 32.264 33.6846 32.84V36.56C33.6846 37.136 33.9006 37.592 34.3326 37.928C34.7806 38.248 35.3406 38.408 36.0126 38.408ZM54.0461 41C53.4061 41 52.8701 40.8 52.4381 40.4C52.0221 40 51.7581 39.464 51.6461 38.792H51.5021C51.3101 39.608 50.8861 40.232 50.2301 40.664C49.5741 41.08 48.7661 41.288 47.8061 41.288C46.5421 41.288 45.5741 40.952 44.9021 40.28C44.2301 39.608 43.8941 38.72 43.8941 37.616C43.8941 36.288 44.3741 35.304 45.3341 34.664C46.3101 34.008 47.6301 33.68 49.2941 33.68H51.2861V32.888C51.2861 32.28 51.1261 31.8 50.8061 31.448C50.4861 31.08 49.9501 30.896 49.1981 30.896C48.4941 30.896 47.9341 31.048 47.5181 31.352C47.1021 31.656 46.7581 32 46.4861 32.384L44.3741 30.512C44.8861 29.76 45.5261 29.176 46.2941 28.76C47.0781 28.328 48.1341 28.112 49.4621 28.112C51.2541 28.112 52.5981 28.504 53.4941 29.288C54.3901 30.072 54.8381 31.216 54.8381 32.72V38.24H56.0141V41H54.0461ZM49.1261 38.816C49.7181 38.816 50.2221 38.688 50.6381 38.432C51.0701 38.176 51.2861 37.76 51.2861 37.184V35.696H49.5581C48.1661 35.696 47.4701 36.168 47.4701 37.112V37.472C47.4701 37.936 47.6141 38.28 47.9021 38.504C48.1901 38.712 48.5981 38.816 49.1261 38.816ZM58.3982 28.4H61.9502V30.512H62.0702C62.2462 29.808 62.6462 29.232 63.2702 28.784C63.9102 28.336 64.6382 28.112 65.4542 28.112C67.0542 28.112 68.2622 28.672 69.0782 29.792C69.8942 30.912 70.3022 32.544 70.3022 34.688C70.3022 36.832 69.8942 38.472 69.0782 39.608C68.2622 40.728 67.0542 41.288 65.4542 41.288C65.0382 41.288 64.6462 41.224 64.2782 41.096C63.9102 40.984 63.5742 40.824 63.2702 40.616C62.9822 40.392 62.7342 40.136 62.5262 39.848C62.3182 39.544 62.1662 39.224 62.0702 38.888H61.9502V45.8H58.3982V28.4ZM64.2782 38.408C64.9502 38.408 65.5022 38.176 65.9342 37.712C66.3822 37.232 66.6062 36.592 66.6062 35.792V33.608C66.6062 32.808 66.3822 32.176 65.9342 31.712C65.5022 31.232 64.9502 30.992 64.2782 30.992C63.6062 30.992 63.0462 31.16 62.5982 31.496C62.1662 31.816 61.9502 32.264 61.9502 32.84V36.56C61.9502 37.136 62.1662 37.592 62.5982 37.928C63.0462 38.248 63.6062 38.408 64.2782 38.408ZM78.2558 41.288C77.2958 41.288 76.4398 41.136 75.6878 40.832C74.9358 40.512 74.2958 40.072 73.7678 39.512C73.2558 38.936 72.8638 38.24 72.5918 37.424C72.3358 36.608 72.2078 35.696 72.2078 34.688C72.2078 33.696 72.3358 32.8 72.5918 32C72.8478 31.184 73.2238 30.488 73.7198 29.912C74.2318 29.336 74.8558 28.896 75.5918 28.592C76.3278 28.272 77.1678 28.112 78.1118 28.112C79.1518 28.112 80.0398 28.288 80.7758 28.64C81.5278 28.992 82.1358 29.464 82.5998 30.056C83.0798 30.648 83.4238 31.336 83.6318 32.12C83.8558 32.888 83.9678 33.696 83.9678 34.544V35.6H75.8798V35.792C75.8798 36.624 76.1038 37.288 76.5518 37.784C76.9998 38.264 77.7038 38.504 78.6638 38.504C79.3998 38.504 79.9998 38.36 80.4638 38.072C80.9278 37.768 81.3598 37.408 81.7598 36.992L83.5358 39.2C82.9758 39.856 82.2398 40.368 81.3278 40.736C80.4318 41.104 79.4078 41.288 78.2558 41.288ZM78.1838 30.728C77.4638 30.728 76.8958 30.968 76.4798 31.448C76.0798 31.912 75.8798 32.536 75.8798 33.32V33.512H80.2958V33.296C80.2958 32.528 80.1198 31.912 79.7678 31.448C79.4318 30.968 78.9038 30.728 78.1838 30.728ZM86.4763 41V28.4H90.0283V31.136H90.1483C90.2123 30.784 90.3243 30.448 90.4843 30.128C90.6443 29.792 90.8523 29.496 91.1083 29.24C91.3803 28.984 91.7003 28.784 92.0683 28.64C92.4363 28.48 92.8683 28.4 93.3643 28.4H93.9883V31.712H93.1003C92.0603 31.712 91.2843 31.848 90.7723 32.12C90.2763 32.392 90.0283 32.896 90.0283 33.632V41H86.4763ZM31.6208 77V64.4H35.1728V66.536H35.3168C35.5408 65.864 35.9248 65.296 36.4688 64.832C37.0128 64.352 37.7568 64.112 38.7008 64.112C39.5648 64.112 40.3008 64.328 40.9088 64.76C41.5168 65.192 41.9568 65.824 42.2288 66.656H42.3008C42.4128 66.304 42.5808 65.976 42.8048 65.672C43.0448 65.352 43.3328 65.08 43.6688 64.856C44.0048 64.632 44.3808 64.456 44.7968 64.328C45.2128 64.184 45.6608 64.112 46.1408 64.112C47.3568 64.112 48.2848 64.544 48.9248 65.408C49.5808 66.272 49.9088 67.504 49.9088 69.104V77H46.3568V69.392C46.3568 67.792 45.7808 66.992 44.6288 66.992C44.1008 66.992 43.6208 67.144 43.1888 67.448C42.7568 67.752 42.5408 68.216 42.5408 68.84V77H38.9888V69.392C38.9888 67.792 38.4128 66.992 37.2608 66.992C37.0048 66.992 36.7488 67.032 36.4928 67.112C36.2528 67.176 36.0288 67.288 35.8208 67.448C35.6288 67.608 35.4688 67.808 35.3408 68.048C35.2288 68.272 35.1728 68.536 35.1728 68.84V77H31.6208ZM58.1782 77.288C57.2502 77.288 56.4182 77.136 55.6822 76.832C54.9622 76.528 54.3462 76.088 53.8342 75.512C53.3382 74.936 52.9542 74.24 52.6822 73.424C52.4102 72.608 52.2742 71.696 52.2742 70.688C52.2742 69.68 52.4102 68.768 52.6822 67.952C52.9542 67.136 53.3382 66.448 53.8342 65.888C54.3462 65.312 54.9622 64.872 55.6822 64.568C56.4182 64.264 57.2502 64.112 58.1782 64.112C59.1062 64.112 59.9302 64.264 60.6502 64.568C61.3862 64.872 62.0022 65.312 62.4982 65.888C63.0102 66.448 63.4022 67.136 63.6742 67.952C63.9462 68.768 64.0822 69.68 64.0822 70.688C64.0822 71.696 63.9462 72.608 63.6742 73.424C63.4022 74.24 63.0102 74.936 62.4982 75.512C62.0022 76.088 61.3862 76.528 60.6502 76.832C59.9302 77.136 59.1062 77.288 58.1782 77.288ZM58.1782 74.48C58.8822 74.48 59.4262 74.264 59.8102 73.832C60.1942 73.4 60.3862 72.784 60.3862 71.984V69.416C60.3862 68.616 60.1942 68 59.8102 67.568C59.4262 67.136 58.8822 66.92 58.1782 66.92C57.4742 66.92 56.9302 67.136 56.5462 67.568C56.1622 68 55.9702 68.616 55.9702 69.416V71.984C55.9702 72.784 56.1622 73.4 56.5462 73.832C56.9302 74.264 57.4742 74.48 58.1782 74.48ZM74.341 74.888H74.221C74.125 75.224 73.973 75.544 73.765 75.848C73.557 76.136 73.301 76.392 72.997 76.616C72.709 76.824 72.373 76.984 71.989 77.096C71.621 77.224 71.237 77.288 70.837 77.288C69.237 77.288 68.029 76.728 67.213 75.608C66.397 74.472 65.989 72.832 65.989 70.688C65.989 68.544 66.397 66.912 67.213 65.792C68.029 64.672 69.237 64.112 70.837 64.112C71.653 64.112 72.373 64.336 72.997 64.784C73.637 65.232 74.045 65.808 74.221 66.512H74.341V59.24H77.893V77H74.341V74.888ZM72.013 74.408C72.685 74.408 73.237 74.248 73.669 73.928C74.117 73.592 74.341 73.136 74.341 72.56V68.84C74.341 68.264 74.117 67.816 73.669 67.496C73.237 67.16 72.685 66.992 72.013 66.992C71.341 66.992 70.781 67.232 70.333 67.712C69.901 68.176 69.685 68.808 69.685 69.608V71.792C69.685 72.592 69.901 73.232 70.333 73.712C70.781 74.176 71.341 74.408 72.013 74.408ZM86.4706 77.288C85.5106 77.288 84.6546 77.136 83.9026 76.832C83.1506 76.512 82.5106 76.072 81.9826 75.512C81.4706 74.936 81.0786 74.24 80.8066 73.424C80.5506 72.608 80.4226 71.696 80.4226 70.688C80.4226 69.696 80.5506 68.8 80.8066 68C81.0626 67.184 81.4386 66.488 81.9346 65.912C82.4466 65.336 83.0706 64.896 83.8066 64.592C84.5426 64.272 85.3826 64.112 86.3266 64.112C87.3666 64.112 88.2546 64.288 88.9906 64.64C89.7426 64.992 90.3506 65.464 90.8146 66.056C91.2946 66.648 91.6386 67.336 91.8466 68.12C92.0706 68.888 92.1826 69.696 92.1826 70.544V71.6H84.0946V71.792C84.0946 72.624 84.3186 73.288 84.7666 73.784C85.2146 74.264 85.9186 74.504 86.8786 74.504C87.6146 74.504 88.2146 74.36 88.6786 74.072C89.1426 73.768 89.5746 73.408 89.9746 72.992L91.7506 75.2C91.1906 75.856 90.4546 76.368 89.5426 76.736C88.6466 77.104 87.6226 77.288 86.4706 77.288ZM86.3986 66.728C85.6786 66.728 85.1106 66.968 84.6946 67.448C84.2946 67.912 84.0946 68.536 84.0946 69.32V69.512H88.5106V69.296C88.5106 68.528 88.3346 67.912 87.9826 67.448C87.6466 66.968 87.1186 66.728 86.3986 66.728Z" fill="black"/>
</svg>
