<svg width="50" height="40" viewBox="0 0 50 40" fill="none" xmlns="http://www.w3.org/2000/svg">
<path d="M50 17.35C49.974 17.1203 49.9237 16.8941 49.85 16.675V16.45C49.7298 16.1929 49.5695 15.9567 49.375 15.75L34.375 0.75C34.1683 0.555541 33.9321 0.395203 33.675 0.275H33.425C33.1819 0.145008 32.9207 0.052305 32.65 0H7.5C5.51088 0 3.60322 0.790177 2.1967 2.1967C0.790177 3.60322 0 5.51088 0 7.5V32.5C0 34.4891 0.790177 36.3968 2.1967 37.8033C3.60322 39.2098 5.51088 40 7.5 40H42.5C44.4891 40 46.3968 39.2098 47.8033 37.8033C49.2098 36.3968 50 34.4891 50 32.5V17.5C50 17.5 50 17.5 50 17.35ZM35 8.525L41.475 15H37.5C36.837 15 36.2011 14.7366 35.7322 14.2678C35.2634 13.7989 35 13.163 35 12.5V8.525ZM45 32.5C45 33.163 44.7366 33.7989 44.2678 34.2678C43.7989 34.7366 43.163 35 42.5 35H7.5C6.83696 35 6.20107 34.7366 5.73223 34.2678C5.26339 33.7989 5 33.163 5 32.5V7.5C5 6.83696 5.26339 6.20107 5.73223 5.73223C6.20107 5.26339 6.83696 5 7.5 5H30V12.5C30 14.4891 30.7902 16.3968 32.1967 17.8033C33.6032 19.2098 35.5109 20 37.5 20H45V32.5ZM12.5 20H22.5C23.163 20 23.7989 19.7366 24.2678 19.2678C24.7366 18.7989 25 18.163 25 17.5C25 16.837 24.7366 16.2011 24.2678 15.7322C23.7989 15.2634 23.163 15 22.5 15H12.5C11.837 15 11.2011 15.2634 10.7322 15.7322C10.2634 16.2011 10 16.837 10 17.5C10 18.163 10.2634 18.7989 10.7322 19.2678C11.2011 19.7366 11.837 20 12.5 20ZM12.5 25C11.837 25 11.2011 25.2634 10.7322 25.7322C10.2634 26.2011 10 26.837 10 27.5C10 28.163 10.2634 28.7989 10.7322 29.2678C11.2011 29.7366 11.837 30 12.5 30H37.5C38.163 30 38.7989 29.7366 39.2678 29.2678C39.7366 28.7989 40 28.163 40 27.5C40 26.837 39.7366 26.2011 39.2678 25.7322C38.7989 25.2634 38.163 25 37.5 25H12.5Z" fill="#F7F7F7"/>
</svg>
