<svg width="15" height="15" viewBox="0 0 15 15" fill="none" xmlns="http://www.w3.org/2000/svg">
<path d="M10.5 6.2025L6.75 4.035C6.52209 3.90341 6.26356 3.8341 6.00039 3.83404C5.73721 3.83397 5.47865 3.90314 5.25067 4.03461C5.02268 4.16608 4.8333 4.35522 4.70154 4.58304C4.56978 4.81085 4.50027 5.06932 4.5 5.3325V9.6675C4.50027 9.93054 4.56971 10.1889 4.70135 10.4166C4.83299 10.6444 5.0222 10.8335 5.25 10.965C5.47803 11.0966 5.7367 11.166 6 11.166C6.26331 11.166 6.52197 11.0966 6.75 10.965L10.5 8.7975C10.7273 8.66564 10.916 8.47638 11.0471 8.24867C11.1783 8.02096 11.2473 7.76278 11.2473 7.5C11.2473 7.23721 11.1783 6.97904 11.0471 6.75133C10.916 6.52362 10.7273 6.33436 10.5 6.2025ZM9.75 7.5L6 9.6675V5.3325L9.75 7.5ZM7.5 0C6.01664 0 4.56659 0.439867 3.33323 1.26398C2.09986 2.08809 1.13856 3.25943 0.570907 4.62987C0.00324963 6.00032 -0.145275 7.50832 0.144114 8.96317C0.433503 10.418 1.14781 11.7544 2.1967 12.8033C3.2456 13.8522 4.58197 14.5665 6.03682 14.8559C7.49168 15.1453 8.99968 14.9967 10.3701 14.4291C11.7406 13.8614 12.9119 12.9001 13.736 11.6668C14.5601 10.4334 15 8.98336 15 7.5C15 6.51508 14.806 5.53981 14.4291 4.62987C14.0522 3.71993 13.4997 2.89314 12.8033 2.1967C12.1069 1.50026 11.2801 0.947814 10.3701 0.570903C9.46019 0.193993 8.48492 0 7.5 0ZM7.5 13.5C6.31331 13.5 5.15328 13.1481 4.16658 12.4888C3.17989 11.8295 2.41085 10.8925 1.95673 9.7961C1.5026 8.69974 1.38378 7.49334 1.61529 6.32946C1.8468 5.16557 2.41825 4.09647 3.25736 3.25736C4.09648 2.41824 5.16557 1.8468 6.32946 1.61529C7.49335 1.38378 8.69975 1.5026 9.7961 1.95672C10.8925 2.41085 11.8295 3.17988 12.4888 4.16658C13.1481 5.15327 13.5 6.31331 13.5 7.5C13.5 9.0913 12.8679 10.6174 11.7426 11.7426C10.6174 12.8679 9.0913 13.5 7.5 13.5Z" fill="black"/>
</svg>
