<svg width="26" height="26" viewBox="0 0 26 26" fill="none" xmlns="http://www.w3.org/2000/svg">
<path d="M25.6349 23.79L20.8148 19.0089C22.6858 16.676 23.5919 13.7149 23.3467 10.7345C23.1016 7.75405 21.7238 4.98083 19.4968 2.98503C17.2697 0.98924 14.3626 -0.0774202 11.3732 0.00437965C8.38384 0.0861795 5.53942 1.31022 3.42482 3.42482C1.31022 5.53942 0.0861795 8.38384 0.00437965 11.3732C-0.0774202 14.3626 0.98924 17.2697 2.98503 19.4968C4.98083 21.7238 7.75405 23.1016 10.7345 23.3467C13.7149 23.5919 16.676 22.6858 19.0089 20.8148L23.79 25.596C23.9108 25.7177 24.0545 25.8144 24.2128 25.8803C24.3711 25.9463 24.541 25.9803 24.7125 25.9803C24.884 25.9803 25.0538 25.9463 25.2121 25.8803C25.3705 25.8144 25.5141 25.7177 25.6349 25.596C25.8691 25.3537 26 25.0299 26 24.693C26 24.3561 25.8691 24.0323 25.6349 23.79ZM11.7202 20.8148C9.92146 20.8148 8.16312 20.2814 6.66752 19.2821C5.17192 18.2828 4.00624 16.8624 3.31789 15.2006C2.62955 13.5387 2.44944 11.7101 2.80036 9.94594C3.15128 8.18176 4.01745 6.56126 5.28935 5.28935C6.56126 4.01745 8.18176 3.15128 9.94594 2.80036C11.7101 2.44944 13.5387 2.62955 15.2006 3.31789C16.8624 4.00624 18.2828 5.17192 19.2821 6.66752C20.2814 8.16312 20.8148 9.92146 20.8148 11.7202C20.8148 14.1322 19.8566 16.4455 18.1511 18.1511C16.4455 19.8566 14.1322 20.8148 11.7202 20.8148Z" fill="#131313"/>
</svg>
