<svg width="16" height="15" viewBox="0 0 16 15" fill="none" xmlns="http://www.w3.org/2000/svg">
<path d="M15.682 5.67407C15.6325 5.53061 15.5424 5.40459 15.4226 5.31131C15.3029 5.21804 15.1587 5.1615 15.0075 5.14856L10.5445 4.49755L8.54442 0.44246C8.48019 0.309849 8.37991 0.198011 8.25506 0.119757C8.13021 0.0415039 7.98585 0 7.8385 0C7.69116 0 7.54679 0.0415039 7.42194 0.119757C7.2971 0.198011 7.19682 0.309849 7.13259 0.44246L5.1325 4.48971L0.669545 5.14856C0.524379 5.16919 0.387903 5.2301 0.275605 5.32438C0.163306 5.41865 0.0796819 5.54252 0.034221 5.68192C-0.00739269 5.81814 -0.011127 5.96312 0.0234188 6.1013C0.0579645 6.23949 0.129486 6.36566 0.230309 6.46627L3.46967 9.60367L2.68532 14.0588C2.65732 14.2058 2.67198 14.3578 2.72758 14.4968C2.78317 14.6358 2.87738 14.756 2.99906 14.8431C3.11767 14.9279 3.25757 14.978 3.40304 14.9877C3.54852 14.9974 3.69382 14.9663 3.82263 14.898L7.8385 12.8038L11.8387 14.9059C11.9488 14.968 12.0731 15.0004 12.1995 15C12.3656 15.0006 12.5277 14.9484 12.6623 14.851C12.7839 14.7638 12.8781 14.6436 12.9337 14.5046C12.9893 14.3657 13.004 14.2137 12.976 14.0666L12.1916 9.61151L15.431 6.47411C15.5443 6.37817 15.628 6.25206 15.6724 6.11045C15.7168 5.96883 15.7201 5.81751 15.682 5.67407ZM10.8583 8.81147C10.7663 8.90045 10.6974 9.01057 10.6578 9.13225C10.6182 9.25393 10.6089 9.38346 10.6308 9.50955L11.1955 12.796L8.24637 11.2273C8.13288 11.1668 8.00629 11.1352 7.87772 11.1352C7.74915 11.1352 7.62256 11.1668 7.50908 11.2273L4.55992 12.796L5.12465 9.50955C5.14656 9.38346 5.13729 9.25393 5.09764 9.13225C5.058 9.01057 4.98918 8.90045 4.89719 8.81147L2.54414 6.45842L5.84625 5.97997C5.97332 5.9623 6.09411 5.91373 6.19803 5.83851C6.30196 5.7633 6.38586 5.66375 6.44236 5.54858L7.8385 2.5602L9.31308 5.55642C9.36959 5.67159 9.45348 5.77115 9.55741 5.84636C9.66133 5.92157 9.78212 5.97014 9.90919 5.98781L13.2113 6.46627L10.8583 8.81147Z" fill="#131313"/>
</svg>
