<svg width="50" height="56" viewBox="0 0 50 56" fill="none" xmlns="http://www.w3.org/2000/svg">
<path d="M41.6667 11.1225H31.6944L38.0833 4.76137C38.3423 4.50237 38.5478 4.1949 38.6879 3.8565C38.8281 3.51811 38.9003 3.15542 38.9003 2.78914C38.9003 2.42287 38.8281 2.06018 38.6879 1.72178C38.5478 1.38339 38.3423 1.07592 38.0833 0.816921C37.8243 0.557925 37.5169 0.352478 37.1785 0.212311C36.8401 0.0721432 36.4774 0 36.1111 0C35.3714 0 34.662 0.293855 34.1389 0.816921L25 9.8447L21.75 4.28914C21.5676 3.97178 21.3245 3.69345 21.0345 3.47005C20.7446 3.24664 20.4135 3.08254 20.0601 2.9871C19.7067 2.89166 19.338 2.86676 18.975 2.91382C18.612 2.96088 18.2618 3.07897 17.9444 3.26137C17.6271 3.44376 17.3488 3.68687 17.1253 3.97683C16.9019 4.26678 16.7378 4.5979 16.6424 4.95128C16.547 5.30466 16.5221 5.67338 16.5691 6.03638C16.6162 6.39938 16.7343 6.74956 16.9167 7.06692L19.4444 11.1225H8.33333C6.1232 11.1225 4.00358 12.0005 2.44078 13.5633C0.877974 15.1261 0 17.2457 0 19.4558V41.678C0 43.8882 0.877974 46.0078 2.44078 47.5706C4.00358 49.1334 6.1232 50.0114 8.33333 50.0114V52.7891C8.33333 53.5259 8.62599 54.2324 9.14693 54.7533C9.66786 55.2743 10.3744 55.5669 11.1111 55.5669C11.8478 55.5669 12.5544 55.2743 13.0753 54.7533C13.5962 54.2324 13.8889 53.5259 13.8889 52.7891V50.0114H36.1111V52.7891C36.1111 53.5259 36.4038 54.2324 36.9247 54.7533C37.4456 55.2743 38.1522 55.5669 38.8889 55.5669C39.6256 55.5669 40.3321 55.2743 40.8531 54.7533C41.374 54.2324 41.6667 53.5259 41.6667 52.7891V50.0114C43.8768 50.0114 45.9964 49.1334 47.5592 47.5706C49.122 46.0078 50 43.8882 50 41.678V19.4558C50 17.2457 49.122 15.1261 47.5592 13.5633C45.9964 12.0005 43.8768 11.1225 41.6667 11.1225ZM44.4444 41.678C44.4444 42.4147 44.1518 43.1213 43.6309 43.6422C43.1099 44.1632 42.4034 44.4558 41.6667 44.4558H8.33333C7.59662 44.4558 6.89008 44.1632 6.36915 43.6422C5.84821 43.1213 5.55556 42.4147 5.55556 41.678V19.4558C5.55556 18.7191 5.84821 18.0126 6.36915 17.4916C6.89008 16.9707 7.59662 16.678 8.33333 16.678H41.6667C42.4034 16.678 43.1099 16.9707 43.6309 17.4916C44.1518 18.0126 44.4444 18.7191 44.4444 19.4558V41.678Z" fill="#F7F7F7"/>
</svg>
