<svg width="217" height="101" viewBox="0 0 217 101" fill="none" xmlns="http://www.w3.org/2000/svg">
<circle cx="167" cy="51" r="49.5" fill="#FCFCFC" stroke="#A7A7A7"/>
<mask id="path-2-inside-1_12_222" fill="white">
<path d="M50 1H165V101H50V1Z"/>
</mask>
<path d="M50 1H165V101H50V1Z" fill="#FCFCFC"/>
<path d="M50 2H165V0H50V2ZM165 100H50V102H165V100Z" fill="#A7A7A7" mask="url(#path-2-inside-1_12_222)"/>
<circle cx="50" cy="51" r="50" fill="#FA9370"/>
<path d="M123.141 42L119.013 29.4H122.517L124.077 34.488L125.253 39.048H125.445L126.621 34.488L128.133 29.4H131.493L127.365 42H123.141ZM135.143 28.056C134.423 28.056 133.895 27.896 133.559 27.576C133.239 27.24 133.079 26.816 133.079 26.304V25.776C133.079 25.264 133.239 24.848 133.559 24.528C133.895 24.192 134.423 24.024 135.143 24.024C135.863 24.024 136.383 24.192 136.703 24.528C137.039 24.848 137.207 25.264 137.207 25.776V26.304C137.207 26.816 137.039 27.24 136.703 27.576C136.383 27.896 135.863 28.056 135.143 28.056ZM133.367 29.4H136.919V42H133.367V29.4ZM147.962 39.888H147.842C147.746 40.224 147.594 40.544 147.386 40.848C147.178 41.136 146.922 41.392 146.618 41.616C146.33 41.824 145.994 41.984 145.61 42.096C145.242 42.224 144.858 42.288 144.458 42.288C142.858 42.288 141.65 41.728 140.834 40.608C140.018 39.472 139.61 37.832 139.61 35.688C139.61 33.544 140.018 31.912 140.834 30.792C141.65 29.672 142.858 29.112 144.458 29.112C145.274 29.112 145.994 29.336 146.618 29.784C147.258 30.232 147.666 30.808 147.842 31.512H147.962V24.24H151.514V42H147.962V39.888ZM145.634 39.408C146.306 39.408 146.858 39.248 147.29 38.928C147.738 38.592 147.962 38.136 147.962 37.56V33.84C147.962 33.264 147.738 32.816 147.29 32.496C146.858 32.16 146.306 31.992 145.634 31.992C144.962 31.992 144.402 32.232 143.954 32.712C143.522 33.176 143.306 33.808 143.306 34.608V36.792C143.306 37.592 143.522 38.232 143.954 38.712C144.402 39.176 144.962 39.408 145.634 39.408ZM160.092 42.288C159.132 42.288 158.276 42.136 157.524 41.832C156.772 41.512 156.132 41.072 155.604 40.512C155.092 39.936 154.7 39.24 154.428 38.424C154.172 37.608 154.044 36.696 154.044 35.688C154.044 34.696 154.172 33.8 154.428 33C154.684 32.184 155.06 31.488 155.556 30.912C156.068 30.336 156.692 29.896 157.428 29.592C158.164 29.272 159.004 29.112 159.948 29.112C160.988 29.112 161.876 29.288 162.612 29.64C163.364 29.992 163.972 30.464 164.436 31.056C164.916 31.648 165.26 32.336 165.468 33.12C165.692 33.888 165.804 34.696 165.804 35.544V36.6H157.716V36.792C157.716 37.624 157.94 38.288 158.388 38.784C158.836 39.264 159.54 39.504 160.5 39.504C161.236 39.504 161.836 39.36 162.3 39.072C162.764 38.768 163.196 38.408 163.596 37.992L165.372 40.2C164.812 40.856 164.076 41.368 163.164 41.736C162.268 42.104 161.244 42.288 160.092 42.288ZM160.02 31.728C159.3 31.728 158.732 31.968 158.316 32.448C157.916 32.912 157.716 33.536 157.716 34.32V34.512H162.132V34.296C162.132 33.528 161.956 32.912 161.604 32.448C161.268 31.968 160.74 31.728 160.02 31.728ZM173.424 42.288C172.496 42.288 171.664 42.136 170.928 41.832C170.208 41.528 169.592 41.088 169.08 40.512C168.584 39.936 168.2 39.24 167.928 38.424C167.656 37.608 167.52 36.696 167.52 35.688C167.52 34.68 167.656 33.768 167.928 32.952C168.2 32.136 168.584 31.448 169.08 30.888C169.592 30.312 170.208 29.872 170.928 29.568C171.664 29.264 172.496 29.112 173.424 29.112C174.352 29.112 175.176 29.264 175.896 29.568C176.632 29.872 177.248 30.312 177.744 30.888C178.256 31.448 178.648 32.136 178.92 32.952C179.192 33.768 179.328 34.68 179.328 35.688C179.328 36.696 179.192 37.608 178.92 38.424C178.648 39.24 178.256 39.936 177.744 40.512C177.248 41.088 176.632 41.528 175.896 41.832C175.176 42.136 174.352 42.288 173.424 42.288ZM173.424 39.48C174.128 39.48 174.672 39.264 175.056 38.832C175.44 38.4 175.632 37.784 175.632 36.984V34.416C175.632 33.616 175.44 33 175.056 32.568C174.672 32.136 174.128 31.92 173.424 31.92C172.72 31.92 172.176 32.136 171.792 32.568C171.408 33 171.216 33.616 171.216 34.416V36.984C171.216 37.784 171.408 38.4 171.792 38.832C172.176 39.264 172.72 39.48 173.424 39.48ZM119.621 78V65.4H123.173V67.536H123.317C123.541 66.864 123.925 66.296 124.469 65.832C125.013 65.352 125.757 65.112 126.701 65.112C127.565 65.112 128.301 65.328 128.909 65.76C129.517 66.192 129.957 66.824 130.229 67.656H130.301C130.413 67.304 130.581 66.976 130.805 66.672C131.045 66.352 131.333 66.08 131.669 65.856C132.005 65.632 132.381 65.456 132.797 65.328C133.213 65.184 133.661 65.112 134.141 65.112C135.357 65.112 136.285 65.544 136.925 66.408C137.581 67.272 137.909 68.504 137.909 70.104V78H134.357V70.392C134.357 68.792 133.781 67.992 132.629 67.992C132.101 67.992 131.621 68.144 131.189 68.448C130.757 68.752 130.541 69.216 130.541 69.84V78H126.989V70.392C126.989 68.792 126.413 67.992 125.261 67.992C125.005 67.992 124.749 68.032 124.493 68.112C124.253 68.176 124.029 68.288 123.821 68.448C123.629 68.608 123.469 68.808 123.341 69.048C123.229 69.272 123.173 69.536 123.173 69.84V78H119.621ZM146.178 78.288C145.25 78.288 144.418 78.136 143.682 77.832C142.962 77.528 142.346 77.088 141.834 76.512C141.338 75.936 140.954 75.24 140.682 74.424C140.41 73.608 140.274 72.696 140.274 71.688C140.274 70.68 140.41 69.768 140.682 68.952C140.954 68.136 141.338 67.448 141.834 66.888C142.346 66.312 142.962 65.872 143.682 65.568C144.418 65.264 145.25 65.112 146.178 65.112C147.106 65.112 147.93 65.264 148.65 65.568C149.386 65.872 150.002 66.312 150.498 66.888C151.01 67.448 151.402 68.136 151.674 68.952C151.946 69.768 152.082 70.68 152.082 71.688C152.082 72.696 151.946 73.608 151.674 74.424C151.402 75.24 151.01 75.936 150.498 76.512C150.002 77.088 149.386 77.528 148.65 77.832C147.93 78.136 147.106 78.288 146.178 78.288ZM146.178 75.48C146.882 75.48 147.426 75.264 147.81 74.832C148.194 74.4 148.386 73.784 148.386 72.984V70.416C148.386 69.616 148.194 69 147.81 68.568C147.426 68.136 146.882 67.92 146.178 67.92C145.474 67.92 144.93 68.136 144.546 68.568C144.162 69 143.97 69.616 143.97 70.416V72.984C143.97 73.784 144.162 74.4 144.546 74.832C144.93 75.264 145.474 75.48 146.178 75.48ZM162.341 75.888H162.221C162.125 76.224 161.973 76.544 161.765 76.848C161.557 77.136 161.301 77.392 160.997 77.616C160.709 77.824 160.373 77.984 159.989 78.096C159.621 78.224 159.237 78.288 158.837 78.288C157.237 78.288 156.029 77.728 155.213 76.608C154.397 75.472 153.989 73.832 153.989 71.688C153.989 69.544 154.397 67.912 155.213 66.792C156.029 65.672 157.237 65.112 158.837 65.112C159.653 65.112 160.373 65.336 160.997 65.784C161.637 66.232 162.045 66.808 162.221 67.512H162.341V60.24H165.893V78H162.341V75.888ZM160.013 75.408C160.685 75.408 161.237 75.248 161.669 74.928C162.117 74.592 162.341 74.136 162.341 73.56V69.84C162.341 69.264 162.117 68.816 161.669 68.496C161.237 68.16 160.685 67.992 160.013 67.992C159.341 67.992 158.781 68.232 158.333 68.712C157.901 69.176 157.685 69.808 157.685 70.608V72.792C157.685 73.592 157.901 74.232 158.333 74.712C158.781 75.176 159.341 75.408 160.013 75.408ZM174.471 78.288C173.511 78.288 172.655 78.136 171.903 77.832C171.151 77.512 170.511 77.072 169.983 76.512C169.471 75.936 169.079 75.24 168.807 74.424C168.551 73.608 168.423 72.696 168.423 71.688C168.423 70.696 168.551 69.8 168.807 69C169.063 68.184 169.439 67.488 169.935 66.912C170.447 66.336 171.071 65.896 171.807 65.592C172.543 65.272 173.383 65.112 174.327 65.112C175.367 65.112 176.255 65.288 176.991 65.64C177.743 65.992 178.351 66.464 178.815 67.056C179.295 67.648 179.639 68.336 179.847 69.12C180.071 69.888 180.183 70.696 180.183 71.544V72.6H172.095V72.792C172.095 73.624 172.319 74.288 172.767 74.784C173.215 75.264 173.919 75.504 174.879 75.504C175.615 75.504 176.215 75.36 176.679 75.072C177.143 74.768 177.575 74.408 177.975 73.992L179.751 76.2C179.191 76.856 178.455 77.368 177.543 77.736C176.647 78.104 175.623 78.288 174.471 78.288ZM174.399 67.728C173.679 67.728 173.111 67.968 172.695 68.448C172.295 68.912 172.095 69.536 172.095 70.32V70.512H176.511V70.296C176.511 69.528 176.335 68.912 175.983 68.448C175.647 67.968 175.119 67.728 174.399 67.728Z" fill="black"/>
<path d="M66.6667 33.1225H56.6944L63.0833 26.7614C63.3423 26.5024 63.5478 26.1949 63.6879 25.8565C63.8281 25.5181 63.9003 25.1554 63.9003 24.7891C63.9003 24.4229 63.8281 24.0602 63.6879 23.7218C63.5478 23.3834 63.3423 23.0759 63.0833 22.8169C62.8243 22.5579 62.5169 22.3525 62.1785 22.2123C61.8401 22.0721 61.4774 22 61.1111 22C60.3714 22 59.662 22.2939 59.1389 22.8169L50 31.8447L46.75 26.2891C46.5676 25.9718 46.3245 25.6935 46.0345 25.47C45.7446 25.2466 45.4135 25.0825 45.0601 24.9871C44.7067 24.8917 44.338 24.8668 43.975 24.9138C43.612 24.9609 43.2618 25.079 42.9444 25.2614C42.6271 25.4438 42.3488 25.6869 42.1253 25.9768C41.9019 26.2668 41.7378 26.5979 41.6424 26.9513C41.547 27.3047 41.5221 27.6734 41.5691 28.0364C41.6162 28.3994 41.7343 28.7496 41.9167 29.0669L44.4444 33.1225H33.3333C31.1232 33.1225 29.0036 34.0005 27.4408 35.5633C25.878 37.1261 25 39.2457 25 41.4558V63.678C25 65.8882 25.878 68.0078 27.4408 69.5706C29.0036 71.1334 31.1232 72.0114 33.3333 72.0114V74.7891C33.3333 75.5259 33.626 76.2324 34.1469 76.7533C34.6679 77.2743 35.3744 77.5669 36.1111 77.5669C36.8478 77.5669 37.5544 77.2743 38.0753 76.7533C38.5962 76.2324 38.8889 75.5259 38.8889 74.7891V72.0114H61.1111V74.7891C61.1111 75.5259 61.4038 76.2324 61.9247 76.7533C62.4456 77.2743 63.1522 77.5669 63.8889 77.5669C64.6256 77.5669 65.3321 77.2743 65.8531 76.7533C66.374 76.2324 66.6667 75.5259 66.6667 74.7891V72.0114C68.8768 72.0114 70.9964 71.1334 72.5592 69.5706C74.122 68.0078 75 65.8882 75 63.678V41.4558C75 39.2457 74.122 37.1261 72.5592 35.5633C70.9964 34.0005 68.8768 33.1225 66.6667 33.1225ZM69.4444 63.678C69.4444 64.4147 69.1518 65.1213 68.6309 65.6422C68.1099 66.1632 67.4034 66.4558 66.6667 66.4558H33.3333C32.5966 66.4558 31.8901 66.1632 31.3691 65.6422C30.8482 65.1213 30.5556 64.4147 30.5556 63.678V41.4558C30.5556 40.7191 30.8482 40.0126 31.3691 39.4916C31.8901 38.9707 32.5966 38.678 33.3333 38.678H66.6667C67.4034 38.678 68.1099 38.9707 68.6309 39.4916C69.1518 40.0126 69.4444 40.7191 69.4444 41.4558V63.678Z" fill="#FCFCFC"/>
</svg>
